HIERARCHY
ROOT Hips
{
	OFFSET 0.000000 97.167313 0.000000
	CHANNELS 6 Xposition Yposition Zposition Xrotation Yrotation Zrotation
	JOINT Spine
	{
		OFFSET 0.000000 13.784798 0.064400
		CHANNELS 3 Xrotation Yrotation Zrotation
		JOINT Spine1
		{
			OFFSET 0.000000 12.037903 0.404700
			CHANNELS 3 Xrotation Yrotation Zrotation
			JOINT Spine2
			{
				OFFSET 0.000000 17.795601 0.420200
				CHANNELS 3 Xrotation Yrotation Zrotation
				JOINT Neck
				{
					OFFSET 0.000000 39.131302 11.954600
					CHANNELS 3 Xrotation Yrotation Zrotation
					JOINT Head
					{
						OFFSET 0.000000 14.456192 15.627699
						CHANNELS 3 Xrotation Yrotation Zrotation
						JOINT HeadTop_End
						{
							OFFSET 0.000000 15.703506 7.603401
							CHANNELS 3 Xrotation Yrotation Zrotation
							End Site
							{
								OFFSET 0.000000 17.447403 0.000000
							}
						}
					}
				}
				JOINT LeftShoulder
				{
					OFFSET 17.399500 24.608795 1.168800
					CHANNELS 3 Xrotation Yrotation Zrotation
					JOINT LeftArm
					{
						OFFSET 18.980635 5.765305 1.818600
						CHANNELS 3 Xrotation Yrotation Zrotation
						JOINT LeftForeArm
						{
							OFFSET 49.290169 0.000000 0.000000
							CHANNELS 3 Xrotation Yrotation Zrotation
							JOINT LeftHand
							{
								OFFSET 31.562012 0.000000 0.000000
								CHANNELS 3 Xrotation Yrotation Zrotation
								JOINT LeftHandThumb1
								{
									OFFSET 6.133995 -4.388519 7.076070
									CHANNELS 3 Xrotation Yrotation Zrotation
									JOINT LeftHandThumb2
									{
										OFFSET 6.037666 -3.485840 3.485847
										CHANNELS 3 Xrotation Yrotation Zrotation
										JOINT LeftHandThumb3
										{
											OFFSET 6.496506 -3.750763 3.750761
											CHANNELS 3 Xrotation Yrotation Zrotation
											JOINT LeftHandThumb4
											{
												OFFSET 5.616882 -3.242905 3.242910
												CHANNELS 3 Xrotation Yrotation Zrotation
												End Site
												{
													OFFSET -1.254608 7.132141 0.375429
												}
											}
										}
									}
								}
								JOINT LeftHandPinky1
								{
									OFFSET 18.920792 -0.453171 -11.426712
									CHANNELS 3 Xrotation Yrotation Zrotation
									JOINT LeftHandPinky2
									{
										OFFSET 4.919586 0.000000 0.000000
										CHANNELS 3 Xrotation Yrotation Zrotation
										JOINT LeftHandPinky3
										{
											OFFSET 5.233047 0.000000 0.000000
											CHANNELS 3 Xrotation Yrotation Zrotation
											JOINT LeftHandPinky4
											{
												OFFSET 5.571716 0.000000 0.000000
												CHANNELS 3 Xrotation Yrotation Zrotation
												End Site
												{
													OFFSET -3.459808 4.342407 -0.466164
												}
											}
										}
									}
								}
								JOINT LeftHandRing1
								{
									OFFSET 22.726120 -0.094986 -6.500475
									CHANNELS 3 Xrotation Yrotation Zrotation
									JOINT LeftHandRing2
									{
										OFFSET 6.408615 0.000000 0.000000
										CHANNELS 3 Xrotation Yrotation Zrotation
										JOINT LeftHandRing3
										{
											OFFSET 6.150223 0.000000 0.000000
											CHANNELS 3 Xrotation Yrotation Zrotation
											JOINT LeftHandRing4
											{
												OFFSET 6.145386 0.000000 0.000000
												CHANNELS 3 Xrotation Yrotation Zrotation
												End Site
												{
													OFFSET -3.671402 4.923981 -0.202372
												}
											}
										}
									}
								}
								JOINT LeftHandMiddle1
								{
									OFFSET 23.373947 0.000000 0.000001
									CHANNELS 3 Xrotation Yrotation Zrotation
									JOINT LeftHandMiddle2
									{
										OFFSET 6.996567 0.000000 0.000000
										CHANNELS 3 Xrotation Yrotation Zrotation
										JOINT LeftHandMiddle3
										{
											OFFSET 7.015945 0.000000 0.000000
											CHANNELS 3 Xrotation Yrotation Zrotation
											JOINT LeftHandMiddle4
											{
												OFFSET 7.721573 0.000000 0.000000
												CHANNELS 3 Xrotation Yrotation Zrotation
												End Site
												{
													OFFSET -4.651108 6.158463 0.251582
												}
											}
										}
									}
								}
								JOINT LeftHandIndex1
								{
									OFFSET 21.310577 -0.490082 6.209344
									CHANNELS 3 Xrotation Yrotation Zrotation
									JOINT LeftHandIndex2
									{
										OFFSET 7.536453 0.000000 0.000000
										CHANNELS 3 Xrotation Yrotation Zrotation
										JOINT LeftHandIndex3
										{
											OFFSET 7.512344 0.000000 0.000000
											CHANNELS 3 Xrotation Yrotation Zrotation
											JOINT LeftHandIndex4
											{
												OFFSET 10.212402 0.000000 0.000001
												CHANNELS 3 Xrotation Yrotation Zrotation
												End Site
												{
													OFFSET -5.180801 8.690506 1.388433
												}
											}
										}
									}
								}
							}
						}
					}
				}
				JOINT RightShoulder
				{
					OFFSET -17.399500 24.608795 1.168800
					CHANNELS 3 Xrotation Yrotation Zrotation
					JOINT RightArm
					{
						OFFSET -18.980635 5.765305 1.818600
						CHANNELS 3 Xrotation Yrotation Zrotation
						JOINT RightForeArm
						{
							OFFSET -49.290169 0.000000 0.000000
							CHANNELS 3 Xrotation Yrotation Zrotation
							JOINT RightHand
							{
								OFFSET -31.562012 0.000000 0.000000
								CHANNELS 3 Xrotation Yrotation Zrotation
								JOINT RightHandThumb1
								{
									OFFSET -6.133995 -4.388519 7.076070
									CHANNELS 3 Xrotation Yrotation Zrotation
									JOINT RightHandThumb2
									{
										OFFSET -6.037666 -3.485840 3.485847
										CHANNELS 3 Xrotation Yrotation Zrotation
										JOINT RightHandThumb3
										{
											OFFSET -6.496506 -3.750763 3.750761
											CHANNELS 3 Xrotation Yrotation Zrotation
											JOINT RightHandThumb4
											{
												OFFSET -5.616882 -3.242905 3.242910
												CHANNELS 3 Xrotation Yrotation Zrotation
												End Site
												{
													OFFSET 1.254608 7.132141 0.375429
												}
											}
										}
									}
								}
								JOINT RightHandIndex1
								{
									OFFSET -21.310577 -0.490082 6.209344
									CHANNELS 3 Xrotation Yrotation Zrotation
									JOINT RightHandIndex2
									{
										OFFSET -7.536453 0.000000 0.000000
										CHANNELS 3 Xrotation Yrotation Zrotation
										JOINT RightHandIndex3
										{
											OFFSET -7.512344 0.000000 0.000000
											CHANNELS 3 Xrotation Yrotation Zrotation
											JOINT RightHandIndex4
											{
												OFFSET -10.212402 0.000000 0.000001
												CHANNELS 3 Xrotation Yrotation Zrotation
												End Site
												{
													OFFSET 5.180801 8.690506 1.388433
												}
											}
										}
									}
								}
								JOINT RightHandMiddle1
								{
									OFFSET -23.373947 0.000000 0.000001
									CHANNELS 3 Xrotation Yrotation Zrotation
									JOINT RightHandMiddle2
									{
										OFFSET -6.996567 0.000000 0.000000
										CHANNELS 3 Xrotation Yrotation Zrotation
										JOINT RightHandMiddle3
										{
											OFFSET -7.015945 0.000000 0.000000
											CHANNELS 3 Xrotation Yrotation Zrotation
											JOINT RightHandMiddle4
											{
												OFFSET -7.721573 0.000000 0.000000
												CHANNELS 3 Xrotation Yrotation Zrotation
												End Site
												{
													OFFSET 4.651108 6.158463 0.251582
												}
											}
										}
									}
								}
								JOINT RightHandRing1
								{
									OFFSET -22.726120 -0.094986 -6.500475
									CHANNELS 3 Xrotation Yrotation Zrotation
									JOINT RightHandRing2
									{
										OFFSET -6.408615 0.000000 0.000000
										CHANNELS 3 Xrotation Yrotation Zrotation
										JOINT RightHandRing3
										{
											OFFSET -6.150223 0.000000 0.000000
											CHANNELS 3 Xrotation Yrotation Zrotation
											JOINT RightHandRing4
											{
												OFFSET -6.145386 0.000000 0.000000
												CHANNELS 3 Xrotation Yrotation Zrotation
												End Site
												{
													OFFSET 3.671402 4.923981 -0.202372
												}
											}
										}
									}
								}
								JOINT RightHandPinky1
								{
									OFFSET -18.920792 -0.453171 -11.426712
									CHANNELS 3 Xrotation Yrotation Zrotation
									JOINT RightHandPinky2
									{
										OFFSET -4.919586 0.000000 0.000000
										CHANNELS 3 Xrotation Yrotation Zrotation
										JOINT RightHandPinky3
										{
											OFFSET -5.233047 0.000000 0.000000
											CHANNELS 3 Xrotation Yrotation Zrotation
											JOINT RightHandPinky4
											{
												OFFSET -5.571716 0.000000 0.000000
												CHANNELS 3 Xrotation Yrotation Zrotation
												End Site
												{
													OFFSET 3.459808 4.342407 -0.466164
												}
											}
										}
									}
								}
							}
						}
					}
				}
			}
		}
	}
	JOINT LeftUpLeg
	{
		OFFSET 19.899099 -7.885101 -3.429500
		CHANNELS 3 Xrotation Yrotation Zrotation
		JOINT LeftLeg
		{
			OFFSET 1.745560 -36.997807 10.304700
			CHANNELS 3 Xrotation Yrotation Zrotation
			JOINT LeftFoot
			{
				OFFSET -1.745558 -29.803308 -13.615400
				CHANNELS 3 Xrotation Yrotation Zrotation
				JOINT LeftToeBase
				{
					OFFSET 1.181900 -18.539904 15.226099
					CHANNELS 3 Xrotation Yrotation Zrotation
					JOINT LeftToe_End
					{
						OFFSET -0.863701 1.402801 16.534700
						CHANNELS 3 Xrotation Yrotation Zrotation
						End Site
						{
							OFFSET 0.000000 16.616566 0.000000
						}
					}
				}
			}
		}
	}
	JOINT RightUpLeg
	{
		OFFSET -19.899099 -7.885101 -3.429500
		CHANNELS 3 Xrotation Yrotation Zrotation
		JOINT RightLeg
		{
			OFFSET -1.745560 -36.997807 10.304700
			CHANNELS 3 Xrotation Yrotation Zrotation
			JOINT RightFoot
			{
				OFFSET 1.745558 -29.803308 -13.615400
				CHANNELS 3 Xrotation Yrotation Zrotation
				JOINT RightToeBase
				{
					OFFSET -1.181900 -18.539904 15.226099
					CHANNELS 3 Xrotation Yrotation Zrotation
					JOINT RightToe_End
					{
						OFFSET 0.863701 1.402801 16.534700
						CHANNELS 3 Xrotation Yrotation Zrotation
						End Site
						{
							OFFSET 0.000000 16.616566 0.000000
						}
					}
				}
			}
		}
	}
}
MOTION
Frames: 4
Frame Time: 0.033333
-5.634573 131.649841 18.383148 4.920295 -19.861920 10.488851 38.081747 -7.186012 -9.615910 -2.420162 -0.860046 -1.129465 -2.353237 -1.137204 -0.973398 -26.842416 8.422861 9.126451 11.189327 9.601423 -12.411222 -0.000000 0.000000 0.000000 14.887505 -27.812730 31.417893 -54.988122 11.458526 10.853761 -39.187384 -62.233091 -17.671808 -0.488256 -4.505818 6.171321 -4.212024 -7.549022 8.222303 2.840629 18.398090 -2.239081 5.152305 25.924782 13.300380 0.000002 -0.000001 0.000000 -5.778948 7.352911 -20.363818 0.247684 0.298653 -53.218379 0.240341 0.240156 -43.993078 0.000001 0.000002 -0.000002 6.416085 2.640886 -21.476915 0.073022 0.360581 -37.853055 0.394692 0.819919 -44.329403 -0.000000 0.000002 0.000003 8.872419 -0.948853 -8.457897 0.332505 0.701577 -38.804531 0.377369 0.193638 -48.081943 0.000002 0.000000 0.000006 13.561852 -2.401939 2.767373 -0.159084 0.312007 -41.244022 -0.129688 0.310530 -40.255093 -0.000002 0.000003 0.000002 3.703316 4.950875 -23.356529 -71.002692 -15.321374 -19.909317 -46.322538 60.760762 35.158932 10.657710 6.724020 -23.315360 -14.203313 14.028854 -0.342339 10.090620 -39.707899 -4.196050 6.551952 -34.889726 -15.091803 0.000004 -0.000002 -0.000000 11.253380 3.760951 -10.703297 -0.291817 -0.117496 57.443312 -0.147169 -0.094674 50.050469 0.000000 -0.000003 -0.000002 5.210129 -9.828552 -11.991056 0.462594 -0.642516 50.834059 0.520718 -0.132234 63.711991 -0.000001 0.000001 -0.000006 4.800909 -19.426832 -6.585399 0.282322 -0.312076 62.959441 0.513889 -0.593946 69.864632 0.000002 -0.000001 -0.000002 10.212915 -27.821625 11.143691 0.312788 -0.173308 81.778914 0.447421 -0.094576 74.472367 -0.000005 -0.000001 0.000004 -85.530231 -7.217536 29.130931 47.417864 -2.901509 -15.447851 18.721140 -11.064778 5.975681 -0.332221 0.927772 -0.306386 0.000001 0.000000 -0.000000 -87.155434 11.573504 -0.259836 123.628951 -2.081977 -0.182325 10.154795 4.363279 -3.803327 -0.332168 -0.927847 0.306425 0.000002 0.000000 -0.000000 
-4.151448 130.329926 28.320717 5.628408 -22.782103 9.853267 39.347962 -6.443802 -9.038409 -3.359796 -1.022027 -1.039990 -3.266700 -1.729922 -1.363886 -26.179246 10.036368 9.821821 13.304263 12.085395 -14.248890 -0.000001 -0.000000 -0.000000 14.683203 -25.291779 29.669297 -51.423019 8.526973 5.827313 -34.183522 -58.645445 -13.029264 0.833177 -8.445680 12.712876 -4.528668 -7.503887 7.916485 2.528064 17.754424 -2.464299 4.897366 23.742228 12.324649 0.000001 -0.000000 -0.000002 -4.321197 7.710198 -18.058713 0.228504 0.294164 -50.190706 0.227901 0.238620 -42.214824 -0.000001 -0.000002 -0.000004 6.806751 2.995792 -19.596702 0.065876 0.348844 -36.197656 0.379392 0.820935 -42.960288 -0.000004 0.000001 0.000003 8.906950 -0.893137 -7.189795 0.318039 0.699545 -37.386178 0.366779 0.193353 -46.960235 -0.000000 -0.000000 0.000009 13.440383 -2.803845 3.485707 -0.154059 0.308011 -40.008403 -0.127137 0.306439 -39.466028 -0.000002 0.000001 0.000001 5.300744 10.182307 -23.728571 -75.679794 -16.792187 -26.297664 -45.932216 58.795730 37.615276 6.170388 6.886505 -20.933592 -12.996284 12.553728 -1.182888 8.656320 -35.576570 -2.927189 6.124760 -29.881234 -13.037403 -0.000001 -0.000001 0.000001 11.314850 4.344226 -10.891060 -0.277643 -0.118749 55.383238 -0.148588 -0.101941 48.837048 -0.000001 0.000002 0.000001 5.549753 -8.901960 -11.879272 0.441810 -0.654564 48.308811 0.505658 -0.140057 61.188776 -0.000000 0.000000 -0.000004 5.333866 -18.298540 -6.386576 0.264124 -0.312068 58.320021 0.498501 -0.625649 66.172246 -0.000001 -0.000001 -0.000002 9.670211 -26.178182 8.630392 0.289222 -0.195701 73.160731 0.419950 -0.127225 68.504666 -0.000004 -0.000002 0.000002 -83.097406 -9.016215 26.953339 42.588637 -4.100044 -13.327162 22.154058 -7.227803 3.588471 -0.332367 0.927106 -0.306930 0.000001 0.000001 0.000003 -82.532891 10.132909 -3.279572 121.790510 0.093005 1.437920 2.140342 3.966297 -2.141908 -0.332014 -0.931712 0.306466 -0.000002 0.000001 -0.000002 
-2.614126 129.107529 38.409542 6.248668 -25.655884 9.209803 40.269358 -5.624342 -8.184274 -4.098435 -1.189361 -1.098633 -3.977665 -2.306286 -1.884686 -25.437172 11.650144 10.462077 15.250913 14.394021 -16.073303 0.000001 -0.000000 0.000000 14.408976 -22.713488 27.837187 -48.191414 5.226254 1.199622 -30.421943 -55.051031 -9.625312 2.264318 -12.354987 19.317073 -4.861689 -7.450485 7.592489 2.193664 17.065182 -2.711051 4.596592 21.395289 11.289931 0.000003 -0.000003 0.000000 -2.793059 8.121949 -15.642706 0.208663 0.288461 -46.962154 0.214670 0.236569 -40.294329 0.000002 0.000000 -0.000006 7.214032 3.383185 -17.590648 0.058680 0.336127 -34.414226 0.362883 0.821506 -41.468551 -0.000002 -0.000000 0.000005 8.942754 -0.833130 -5.819296 0.302524 0.696839 -35.842664 0.355326 0.192719 -45.718192 -0.000001 -0.000001 0.000008 13.314311 -3.238274 4.275554 -0.148648 0.303742 -38.646218 -0.124427 0.302040 -38.563525 -0.000000 0.000001 0.000003 7.130038 15.458455 -24.421673 -80.353521 -17.200605 -33.030412 -45.416793 56.785476 39.673307 1.869091 6.813653 -18.274697 -11.791840 11.019486 -1.983269 7.183830 -31.237184 -1.539629 5.521032 -24.537651 -10.952461 -0.000000 0.000001 -0.000003 11.384570 4.977486 -11.157809 -0.261459 -0.119633 53.049816 -0.148721 -0.108882 47.409518 -0.000001 -0.000003 -0.000004 5.899594 -7.925308 -11.832667 0.418578 -0.665992 45.528928 0.488474 -0.147739 58.426579 -0.000001 -0.000000 -0.000004 5.876974 -17.125651 -6.242754 0.245744 -0.310166 53.354958 0.479768 -0.656938 62.178197 -0.000001 -0.000001 -0.000005 9.156313 -24.504424 6.057576 0.263993 -0.212192 64.092385 0.389633 -0.157502 62.169481 0.000003 -0.000002 0.000002 -79.944639 -10.783701 24.986517 37.233499 -5.455644 -11.414188 25.758704 -3.855150 0.797509 -0.332510 0.926662 -0.307324 0.000001 -0.000001 -0.000000 -78.308706 7.977455 -5.010746 119.388169 1.523180 2.618259 -5.310695 2.945727 -0.054270 -0.332022 -0.935255 0.306500 0.000003 -0.000002 0.000002 
-2.054161 127.431320 48.944046 6.623762 -28.227727 8.235173 38.192119 -4.331170 -4.811396 -3.086698 -1.403218 -2.402999 -2.861496 -2.875582 -3.376351 -23.806761 13.120891 10.915516 14.542115 16.103486 -16.343604 0.000001 -0.000000 0.000000 13.163908 -19.599622 25.207780 -45.650150 2.904281 -3.249369 -28.409561 -53.115352 -7.965818 3.545644 -16.225553 25.192710 -5.341670 -7.331412 7.112090 1.663781 15.978249 -3.123098 4.028791 17.638694 9.618019 -0.000000 -0.000002 0.000001 -0.664952 9.019965 -12.145163 0.179576 0.276316 -41.975597 0.193599 0.231204 -37.128420 -0.000002 0.000003 -0.000007 7.762828 4.053176 -14.448859 0.048936 0.315381 -31.511467 0.335791 0.819870 -38.903210 -0.000002 -0.000001 0.000003 8.988411 -0.736428 -3.552186 0.277777 0.690248 -33.203868 0.336055 0.189465 -43.423300 -0.000002 0.000000 0.000004 13.147113 -3.956869 5.703278 -0.140168 0.297228 -36.176131 -0.120304 0.294731 -36.668581 -0.000000 0.000000 -0.000004 9.885687 21.566051 -25.653311 -85.650258 -17.084269 -41.134995 -43.214679 54.290971 37.966515 -0.823066 4.829771 -13.846172 -10.414346 9.149250 -2.835753 5.004271 -25.230666 0.482246 4.223895 -16.407050 -7.704541 -0.000004 -0.000003 0.000004 11.524331 6.048515 -12.108710 -0.227636 -0.118208 48.323677 -0.136995 -0.113307 44.108829 -0.000002 -0.000003 0.000001 6.358332 -6.518155 -12.276544 0.372782 -0.676304 40.520312 0.452397 -0.158553 53.573787 0.000001 0.000003 -0.000008 6.571117 -15.582412 -6.419335 0.211813 -0.301162 45.540286 0.439281 -0.698342 55.545195 -0.000002 0.000001 -0.000005 8.767081 -22.583618 2.695050 0.216485 -0.222844 51.085621 0.333624 -0.189708 52.618111 0.000001 -0.000001 0.000000 -72.309601 -11.764133 22.971617 28.180597 -6.605760 -8.520908 30.844796 -2.405171 -3.138437 -0.332044 0.927771 -0.306412 -0.000000 0.000001 0.000001 -82.003955 4.268843 -4.597116 113.966399 0.542397 2.474815 -5.271332 1.277819 3.338886 -0.332156 -0.936216 0.306395 -0.000004 -0.000002 0.000001 
